<mxfile host="app.diagrams.net" modified="2020-08-29T21:10:37.824Z" agent="5.0 (X11; Linux x86_64) AppleWebKit/537.36 (KHTML, like Gecko) Chrome/79.0.3945.117 Safari/537.36" etag="mx-2EMotdqF63LO3WE2Z" version="13.1.3" type="github">
  <diagram id="BgASO-WtDmuJOJy3E9rG" name="Page-1">
    <mxGraphModel dx="1422" dy="784" grid="1" gridSize="10" guides="1" tooltips="1" connect="1" arrows="1" fold="1" page="1" pageScale="1" pageWidth="827" pageHeight="1169" math="0" shadow="0">
      <root>
        <mxCell id="0" />
        <mxCell id="1" parent="0" />
        <mxCell id="HwGC9CHvmVJJBGZntoXC-1" value="" style="whiteSpace=wrap;html=1;aspect=fixed;" vertex="1" parent="1">
          <mxGeometry x="110" y="170" width="220" height="220" as="geometry" />
        </mxCell>
        <mxCell id="HwGC9CHvmVJJBGZntoXC-2" value="Transakcija A1" style="rounded=0;whiteSpace=wrap;html=1;" vertex="1" parent="1">
          <mxGeometry x="120" y="180" width="200" height="30" as="geometry" />
        </mxCell>
        <mxCell id="HwGC9CHvmVJJBGZntoXC-3" value="Ulaz:&lt;br&gt;X + Y iz zajedničke adrese&amp;nbsp;&lt;br&gt;&lt;br&gt;Izlaz:&lt;br&gt;1. X na adresu koja pripada Alice&lt;br&gt;2. Y na adresu koja pripada Bobu" style="rounded=0;whiteSpace=wrap;html=1;align=left;" vertex="1" parent="1">
          <mxGeometry x="120" y="220" width="200" height="100" as="geometry" />
        </mxCell>
        <mxCell id="HwGC9CHvmVJJBGZntoXC-4" value="Bob je potpisao" style="rounded=0;whiteSpace=wrap;html=1;" vertex="1" parent="1">
          <mxGeometry x="130" y="330" width="180" height="20" as="geometry" />
        </mxCell>
        <mxCell id="HwGC9CHvmVJJBGZntoXC-5" value="Potreban je potpis od Alice&amp;nbsp;" style="rounded=0;whiteSpace=wrap;html=1;" vertex="1" parent="1">
          <mxGeometry x="130" y="360" width="180" height="20" as="geometry" />
        </mxCell>
        <mxCell id="HwGC9CHvmVJJBGZntoXC-6" value="" style="whiteSpace=wrap;html=1;aspect=fixed;" vertex="1" parent="1">
          <mxGeometry x="370" y="170" width="220" height="220" as="geometry" />
        </mxCell>
        <mxCell id="HwGC9CHvmVJJBGZntoXC-7" value="Transakcija B1" style="rounded=0;whiteSpace=wrap;html=1;" vertex="1" parent="1">
          <mxGeometry x="380" y="180" width="200" height="30" as="geometry" />
        </mxCell>
        <mxCell id="HwGC9CHvmVJJBGZntoXC-8" value="Ulaz:&lt;br&gt;X + Y iz zajedničke adrese&amp;nbsp;&lt;br&gt;&lt;br&gt;Izlaz:&lt;br&gt;1. X na adresu koja pripada Alice&lt;br&gt;2. Y na adresu koja pripada Bobu" style="rounded=0;whiteSpace=wrap;html=1;align=left;" vertex="1" parent="1">
          <mxGeometry x="380" y="220" width="200" height="100" as="geometry" />
        </mxCell>
        <mxCell id="HwGC9CHvmVJJBGZntoXC-9" value="Potreban je potpis od Boba" style="rounded=0;whiteSpace=wrap;html=1;" vertex="1" parent="1">
          <mxGeometry x="390" y="330" width="180" height="20" as="geometry" />
        </mxCell>
        <mxCell id="HwGC9CHvmVJJBGZntoXC-10" value="Alice je potpisala" style="rounded=0;whiteSpace=wrap;html=1;" vertex="1" parent="1">
          <mxGeometry x="390" y="360" width="180" height="20" as="geometry" />
        </mxCell>
      </root>
    </mxGraphModel>
  </diagram>
</mxfile>
